<svg width="723" height="763" fill="none" xmlns="http://www.w3.org/2000/svg"><path d="M248.193 763c11.175-5.207 19.003-17.239 19.003-31.244v-91.895c0-3.353.251-6.841.644-10.381a9 9 0 0 1-.644.17h-56.583c-23.576 0-44.009-10.21-53.439-30.631-11.002-22.123-15.717-59.562-44.009-79.983-4.715-3.403-1.572-8.509 7.859-8.509 9.43 1.702 29.863 15.316 42.437 34.035 14.146 18.72 28.291 34.036 53.439 34.036 39.089 0 60.04-2.128 72.646-9.445 14.68-23.638 35.002-41.608 56.237-41.608v-.426c-89.087-3.097-145.999-35.158-172.499-84.662-57.604.715-107.758 6.892-136.38 12.031a394.69 394.69 0 0 1-2.373-16.796c28.244-5.037 76.119-11.01 131.162-12.15a146.803 146.803 0 0 1-4.574-14.448c-55.184-3.03-102.808-.664-128.678 1.65-.315-5.65-.739-11.282-.802-17 25.918-2.298 72.253-4.595 126.022-1.889-1.242-8.509-2.043-17.205-2.043-26.258 0-28.93 9.43-59.562 26.719-85.088-7.858-28.93-18.86-90.193 3.144-112.316 42.437 0 72.3 22.123 86.446 35.737 26.703-11.93 56.566-18.737 89.573-18.737 33.007 0 62.87 6.807 88.017 18.72 14.146-13.614 44.009-35.737 86.446-35.737 23.576 23.824 11.002 85.088 3.143 112.316 17.29 25.526 26.72 54.456 25.148 85.088 0 8.236-.707 16.183-1.729 23.977 54.996-2.927 102.588-.578 128.946 1.736-.032 5.735-.519 11.334-.802 17.001-26.263-2.349-75.05-4.765-131.381-1.515a149.03 149.03 0 0 1-5.109 16.677c55.734.783 104.757 6.62 134.353 11.726a387.085 387.085 0 0 1-2.374 16.796c-30.051-5.207-81.274-11.3-139.554-11.606-26.17 48.976-82.045 80.918-169.387 84.645v.528c40.866 0 78.587 66.368 78.587 112.316v91.895c0 14.005 7.828 26.037 19.003 31.244C618.794 711.403 723 564.371 723 391.404 723 175.587 560.844 0 361.5 0S0 175.587 0 391.404C0 564.371 104.206 711.403 248.193 763Z" fill="#DCD7C9"/></svg>