<svg width="841" height="813" fill="none" xmlns="http://www.w3.org/2000/svg"><path d="M740.881 0H100.119C44.853 0 0 43.36 0 96.786v619.428C0 769.64 44.853 813 100.119 813h640.762C796.147 813 841 769.64 841 716.214V96.786C841 43.36 796.147 0 740.881 0ZM260.31 309.714V677.5H140.167V309.714H260.31ZM140.167 202.669c0-27.1 24.028-47.812 60.071-47.812s58.67 20.712 60.072 47.812c0 27.1-22.427 48.974-60.072 48.974-36.043 0-60.071-21.874-60.071-48.974ZM700.833 677.5H580.69V483.929c0-38.715-20.023-77.429-70.083-78.203h-1.602c-48.457 0-68.481 39.875-68.481 78.203V677.5H320.381V309.714h120.143v49.555s38.646-49.555 116.338-49.555c79.495 0 143.971 52.845 143.971 159.89V677.5Z" fill="#DCD7C9"/></svg>