<svg width="2159" height="2159" fill="none" xmlns="http://www.w3.org/2000/svg"><path d="M637.78 0C286.02 0 0 286.02 0 637.78v883.08c0 351.76 286.02 637.78 637.78 637.78h883.08c351.76 0 637.78-286.02 637.78-637.78V637.78C2158.64 286.02 1872.62 0 1520.86 0H637.78Zm1030.26 392.48c53.97 0 98.12 44.154 98.12 98.12s-44.15 98.12-98.12 98.12c-53.97 0-98.12-44.154-98.12-98.12s44.15-98.12 98.12-98.12Zm-588.72 147.18c297.79 0 539.66 241.866 539.66 539.66 0 297.79-241.87 539.66-539.66 539.66-297.794 0-539.66-241.87-539.66-539.66 0-297.794 241.866-539.66 539.66-539.66Zm0 98.12c-243.338 0-441.54 198.202-441.54 441.54 0 243.34 198.202 441.54 441.54 441.54 243.34 0 441.54-198.2 441.54-441.54 0-243.338-198.2-441.54-441.54-441.54Z" fill="#DCD7C9"/></svg>